<svg xmlns="http://www.w3.org/2000/svg" width="1200" height="630" viewBox="0 0 1200 630">
  <defs>
    <linearGradient id="bg" x1="0" y1="0" x2="1" y2="1">
      <stop offset="0" stop-color="#14663c"/>
      <stop offset="1" stop-color="#0d4b2b"/>
    </linearGradient>
  </defs>
  <rect width="1200" height="630" fill="url(#bg)"/>
  <path d="M0 520 L320 400 L560 500 L820 380 L1080 470 L1200 420 L1200 630 L0 630 Z" fill="#0d4b2b" opacity="0.6"/>
  <!-- Hus + varmebølger -->
  <g transform="translate(120 250)">
    <g fill="none" stroke="#f4a15e" stroke-width="9" stroke-linecap="round" opacity="0.9">
      <path d="M0 70 q30 -30 0 -60 q-30 -30 0 -60"/>
      <path d="M56 70 q30 -30 0 -60 q-30 -30 0 -60"/>
    </g>
    <path d="M120 60 L190 0 L260 60 V128 a8 8 0 0 1-8 8 H128 a8 8 0 0 1-8 -8 Z"
          fill="none" stroke="#eaf3ec" stroke-width="11" stroke-linejoin="round"/>
  </g>
  <text x="120" y="470" font-family="Inter, Segoe UI, Arial, sans-serif" font-size="76" font-weight="800" fill="#ffffff">varmepumpe<tspan fill="#f4a15e">zonen</tspan>.dk</text>
  <text x="122" y="530" font-family="Inter, Segoe UI, Arial, sans-serif" font-size="32" font-weight="500" fill="#cbdccf">Pris · tilskud 2026 · besparelser · bedste varmepumpe</text>
</svg>
